<mxfile host="65bd71144e">
    <diagram id="AgJksdsXJxcCUgGI7t1W" name="APPLICATION">
        <mxGraphModel dx="1410" dy="893" grid="1" gridSize="10" guides="1" tooltips="1" connect="1" arrows="1" fold="1" page="1" pageScale="1" pageWidth="850" pageHeight="1100" math="0" shadow="0">
            <root>
                <mxCell id="0"/>
                <mxCell id="1" parent="0"/>
                <mxCell id="5" value="LOGIN" style="rounded=1;whiteSpace=wrap;html=1;arcSize=0;" vertex="1" parent="1">
                    <mxGeometry x="40" y="180" width="160" height="200" as="geometry"/>
                </mxCell>
                <mxCell id="8" style="edgeStyle=none;html=1;exitX=0;exitY=1;exitDx=0;exitDy=0;entryX=0.425;entryY=0.004;entryDx=0;entryDy=0;entryPerimeter=0;" edge="1" parent="1" source="6" target="5">
                    <mxGeometry relative="1" as="geometry"/>
                </mxCell>
                <mxCell id="9" style="edgeStyle=none;html=1;exitX=1;exitY=1;exitDx=0;exitDy=0;entryX=0.5;entryY=0;entryDx=0;entryDy=0;" edge="1" parent="1" source="6" target="7">
                    <mxGeometry relative="1" as="geometry"/>
                </mxCell>
                <mxCell id="6" value="APPLICATION" style="ellipse;whiteSpace=wrap;html=1;" vertex="1" parent="1">
                    <mxGeometry x="360" y="40" width="120" height="80" as="geometry"/>
                </mxCell>
                <mxCell id="7" value="INTERFACE" style="rounded=1;whiteSpace=wrap;html=1;arcSize=0;" vertex="1" parent="1">
                    <mxGeometry x="280" y="160" width="520" height="240" as="geometry"/>
                </mxCell>
            </root>
        </mxGraphModel>
    </diagram>
    <diagram id="NgHBggw4EM-uUDSTNrPR" name="LOGIN">
        <mxGraphModel dx="846" dy="536" grid="1" gridSize="10" guides="1" tooltips="1" connect="1" arrows="1" fold="1" page="1" pageScale="1" pageWidth="850" pageHeight="1100" math="0" shadow="0">
            <root>
                <mxCell id="0"/>
                <mxCell id="1" parent="0"/>
                <mxCell id="411NEcbLB5ybMFOwxo95-9" style="edgeStyle=none;html=1;exitX=0.5;exitY=1;exitDx=0;exitDy=0;entryX=0.5;entryY=0;entryDx=0;entryDy=0;" edge="1" parent="1" source="411NEcbLB5ybMFOwxo95-2" target="411NEcbLB5ybMFOwxo95-3">
                    <mxGeometry relative="1" as="geometry"/>
                </mxCell>
                <mxCell id="411NEcbLB5ybMFOwxo95-2" value="LOGIN" style="rounded=1;whiteSpace=wrap;html=1;" vertex="1" parent="1">
                    <mxGeometry x="320" y="40" width="120" height="60" as="geometry"/>
                </mxCell>
                <mxCell id="411NEcbLB5ybMFOwxo95-3" value="" style="rounded=1;whiteSpace=wrap;html=1;arcSize=0;" vertex="1" parent="1">
                    <mxGeometry x="120" y="160" width="200" height="280" as="geometry"/>
                </mxCell>
                <mxCell id="411NEcbLB5ybMFOwxo95-6" value="MEF LOGO LABEL" style="rounded=1;whiteSpace=wrap;html=1;arcSize=0;" vertex="1" parent="1">
                    <mxGeometry x="130" y="170" width="180" height="60" as="geometry"/>
                </mxCell>
                <mxCell id="411NEcbLB5ybMFOwxo95-10" style="edgeStyle=none;html=1;exitX=1;exitY=0.5;exitDx=0;exitDy=0;" edge="1" parent="1" source="411NEcbLB5ybMFOwxo95-7">
                    <mxGeometry relative="1" as="geometry">
                        <mxPoint x="440" y="200" as="targetPoint"/>
                    </mxGeometry>
                </mxCell>
                <mxCell id="411NEcbLB5ybMFOwxo95-11" style="edgeStyle=none;html=1;exitX=1;exitY=0.5;exitDx=0;exitDy=0;" edge="1" parent="1" source="411NEcbLB5ybMFOwxo95-7">
                    <mxGeometry relative="1" as="geometry">
                        <mxPoint x="440" y="400" as="targetPoint"/>
                    </mxGeometry>
                </mxCell>
                <mxCell id="411NEcbLB5ybMFOwxo95-7" value="ONLINE &amp;amp; OFFLINE EXEC" style="rounded=1;whiteSpace=wrap;html=1;arcSize=0;" vertex="1" parent="1">
                    <mxGeometry x="130" y="240" width="180" height="120" as="geometry"/>
                </mxCell>
                <mxCell id="411NEcbLB5ybMFOwxo95-8" value="OUTPUT LABEL" style="rounded=1;whiteSpace=wrap;html=1;arcSize=0;" vertex="1" parent="1">
                    <mxGeometry x="130" y="370" width="180" height="60" as="geometry"/>
                </mxCell>
                <mxCell id="411NEcbLB5ybMFOwxo95-12" value="" style="rounded=1;whiteSpace=wrap;html=1;arcSize=0;" vertex="1" parent="1">
                    <mxGeometry x="440" y="120" width="200" height="160" as="geometry"/>
                </mxCell>
                <mxCell id="411NEcbLB5ybMFOwxo95-14" value="EXEC INFO LABEL" style="rounded=1;whiteSpace=wrap;html=1;arcSize=0;" vertex="1" parent="1">
                    <mxGeometry x="450" y="130" width="180" height="40" as="geometry"/>
                </mxCell>
                <mxCell id="411NEcbLB5ybMFOwxo95-15" value="CALL LABEL" style="rounded=1;whiteSpace=wrap;html=1;arcSize=0;" vertex="1" parent="1">
                    <mxGeometry x="450" y="230" width="180" height="40" as="geometry"/>
                </mxCell>
                <mxCell id="411NEcbLB5ybMFOwxo95-16" value="INPUT LABEL" style="rounded=1;whiteSpace=wrap;html=1;arcSize=0;" vertex="1" parent="1">
                    <mxGeometry x="450" y="180" width="180" height="40" as="geometry"/>
                </mxCell>
                <mxCell id="411NEcbLB5ybMFOwxo95-21" value="" style="rounded=1;whiteSpace=wrap;html=1;arcSize=0;" vertex="1" parent="1">
                    <mxGeometry x="440" y="320" width="200" height="160" as="geometry"/>
                </mxCell>
                <mxCell id="411NEcbLB5ybMFOwxo95-22" value="EXEC INFO LABEL" style="rounded=1;whiteSpace=wrap;html=1;arcSize=0;" vertex="1" parent="1">
                    <mxGeometry x="450" y="330" width="180" height="40" as="geometry"/>
                </mxCell>
                <mxCell id="411NEcbLB5ybMFOwxo95-23" value="CALL LABEL" style="rounded=1;whiteSpace=wrap;html=1;arcSize=0;" vertex="1" parent="1">
                    <mxGeometry x="450" y="430" width="180" height="40" as="geometry"/>
                </mxCell>
                <mxCell id="411NEcbLB5ybMFOwxo95-24" value="INPUT LABEL" style="rounded=1;whiteSpace=wrap;html=1;arcSize=0;" vertex="1" parent="1">
                    <mxGeometry x="450" y="380" width="180" height="40" as="geometry"/>
                </mxCell>
            </root>
        </mxGraphModel>
    </diagram>
    <diagram id="g-hdhDCSpz_X6ioaozbB" name="INTERFACE">
        <mxGraphModel dx="846" dy="536" grid="1" gridSize="10" guides="1" tooltips="1" connect="1" arrows="1" fold="1" page="1" pageScale="1" pageWidth="850" pageHeight="1100" math="0" shadow="0">
            <root>
                <mxCell id="0"/>
                <mxCell id="1" parent="0"/>
            </root>
        </mxGraphModel>
    </diagram>
</mxfile>